[img]http://img18.imageshack.us/img18/7292/666parkavenue.jpg[/img]

[size=200][color=black]TV INFO[/color][/size]

[code]666 Park Avenue S01E09 HDTV x264 AAC-V3nom

Format                                   : MPEG-4
Format profile                           : Base Media / Version 2
Codec ID                                 : mp42
File size                                : 149 MiB
Duration                                 : 42mn 35s
Overall bit rate mode                    : Variable
Overall bit rate                         : 491 Kbps
Encoded date                             : UTC 2012-12-03 13:52:43
Tagged date                              : UTC 2012-12-03 14:08:43

Video
ID                                       : 1
Format                                   : AVC
Format/Info                              : Advanced Video Codec
Format profile                           : Main@L3.0
Format settings, CABAC                   : Yes
Format settings, ReFrames                : 4 frames
Codec ID                                 : avc1
Codec ID/Info                            : Advanced Video Coding
Duration                                 : 42mn 35s
Bit rate mode                            : Variable
Bit rate                                 : 360 Kbps
Width                                    : 640 pixels
Height                                   : 360 pixels
Display aspect ratio                     : 16:9
Frame rate mode                          : Variable
Frame rate                               : 23.976 fps
Minimum frame rate                       : 23.974 fps
Maximum frame rate                       : 90 000.000 fps
Color space                              : YUV
Chroma subsampling                       : 4:2:0
Bit depth                                : 8 bits
Scan type                                : Progressive
Bits/(Pixel*Frame)                       : 0.065
Stream size                              : 109 MiB (73%)
Writing library                          : x264 core 112

Audio
ID                                       : 2
Format                                   : AAC
Format/Info                              : Advanced Audio Codec
Format profile                           : LC
Codec ID                                 : 40
Duration                                 : 42mn 35s
Bit rate mode                            : Variable
Bit rate                                 : 128 Kbps
Maximum bit rate                         : 241 Kbps
Channel(s)                               : 2 channels
Channel positions                        : Front: L R
Sampling rate                            : 48.0 KHz
Compression mode                         : Lossy
Delay relative to video                  : 42ms
Stream size                              : 39.0 MiB (26%)
Encoded date                             : UTC 2012-12-03 13:52:43
Tagged date                              : UTC 2012-12-03 14:08:41[/code]

[size=200][color=black]SOURCE[/color][/size]

[code]666.Park.Avenue.S01E09.HDTV.XviD-AFG (THANKS)[/code]

[size=200][color=black]SCREENSHOTS[/color][/size]

[img]http://img62.imageshack.us/img62/300/666parkavenues01e09hdtv.jpg[/img]

[img]http://kastatic.com/i2/users/133df62bbf28e62494bb17fe11078f1a.gif[/img][img]http://kastatic.com/i2/users/133df62bbf28e62494bb17fe11078f1a.gif[/img]
